<?xml version="1.0" encoding="UTF-8" standalone="no"?>
<!-- Created with Inkscape (http://www.inkscape.org/) -->

<svg
   xmlns:dc="http://purl.org/dc/elements/1.1/"
   xmlns:cc="http://creativecommons.org/ns#"
   xmlns:rdf="http://www.w3.org/1999/02/22-rdf-syntax-ns#"
   xmlns:svg="http://www.w3.org/2000/svg"
   xmlns="http://www.w3.org/2000/svg"
   xmlns:sodipodi="http://sodipodi.sourceforge.net/DTD/sodipodi-0.dtd"
   xmlns:inkscape="http://www.inkscape.org/namespaces/inkscape"
   version="1.1"
   id="svg2"
   width="93.219124"
   height="50.0938"
   viewBox="0 0 93.219124 50.0938"
   sodipodi:docname="letsconnect.svg"
   inkscape:version="0.92.4 (5da689c313, 2019-01-14)">
  <title
     id="title876">Logo Lets Connect</title>
  <metadata
     id="metadata8">
    <rdf:RDF>
      <cc:Work
         rdf:about="">
        <dc:format>image/svg+xml</dc:format>
        <dc:type
           rdf:resource="http://purl.org/dc/dcmitype/StillImage" />
        <dc:title>Logo Lets Connect</dc:title>
      </cc:Work>
    </rdf:RDF>
  </metadata>
  <defs
     id="defs6" />
  <sodipodi:namedview
     pagecolor="#ffffff"
     bordercolor="#666666"
     borderopacity="1"
     objecttolerance="10"
     gridtolerance="10"
     guidetolerance="10"
     inkscape:pageopacity="0"
     inkscape:pageshadow="2"
     inkscape:window-width="2560"
     inkscape:window-height="1367"
     id="namedview4"
     showgrid="false"
     inkscape:snap-others="false"
     inkscape:snap-grids="false"
     inkscape:snap-to-guides="false"
     inkscape:snap-nodes="false"
     inkscape:zoom="2.8284271"
     inkscape:cx="-128.51258"
     inkscape:cy="17.817158"
     inkscape:window-x="0"
     inkscape:window-y="0"
     inkscape:window-maximized="1"
     inkscape:current-layer="svg2"
     fit-margin-top="0"
     fit-margin-left="0"
     fit-margin-right="0"
     fit-margin-bottom="0" />
  <path
     style="fill:#1193f5;fill-opacity:1;stroke:none;stroke-width:8.53784657;stroke-miterlimit:4;stroke-dasharray:none"
     d="M 39.174159,11.402389 C 31.96549,9.1686969 23.103227,11.972841 19.39834,18.773994 c -4.283841,2.130627 -9.8505142,0.66891 -13.4796369,4.500637 -6.90476515,5.009767 -8.1674535,16.454513 -1.5408934,22.221907 4.0094876,3.869908 9.8082473,4.69785 15.1484733,4.456523 19.708006,0.225423 39.417875,-0.161605 59.126285,0.124331 3.771448,-0.123784 8.278976,0.745502 11.109318,-2.434486 5.211616,-5.460138 4.647772,-16.005405 -2.07542,-20.007759 -2.322634,-2.293794 -8.203261,1.964335 -6.81436,-3.064411 C 81.071191,14.277022 74.602231,3.4281085 64.235197,0.8181726 58.393961,-0.98942529 52.04164,0.4620999 47.122157,3.93531 44.025764,5.8696548 41.114548,8.2668969 39.174159,11.402389 Z M 62.990565,7.8574671 c 3.558684,-0.3209299 2.618182,5.4038729 1.784924,7.2159989 -4.476695,-0.150734 -8.969782,-0.02361 -13.452892,-0.06561 -1.55242,-3.7341 0.599036,-9.3916635 5.155473,-6.2396413 2.220551,0.4544876 4.361532,-0.5434618 6.512495,-0.9107496 z m -9.423828,9.5156249 c 4.905013,0.25994 10.044623,-0.628519 14.793131,0.704276 2.675881,2.372176 -1.127923,4.882457 -3.329667,2.718601 -1.458007,0.968304 -0.495756,4.562109 -3.55634,3.397171 -2.106096,0.905193 -2.816702,-5.362134 -4.038664,-1.65914 -0.256581,3.429048 -6.492502,1.806702 -5.49047,-1.824084 -1.337572,-0.213922 -7.372965,-0.459991 -3.341523,-1.866778 1.503031,-0.870599 3.17858,-1.646232 4.963533,-1.470046 z m -3.238281,11.695313 c 0.760219,3.562515 1.188346,9.872436 5.334611,10.534937 2.696821,-0.555822 1.218231,-5.108057 1.874343,-7.376073 -2.793048,-2.849672 5.066746,-2.606027 2.043198,-0.341486 0.885801,2.431248 -1.310152,7.684257 2.177383,7.680528 3.844088,-1.741457 3.28807,-6.913611 4.759645,-10.202701 2.930484,-0.137517 9.71819,-1.197328 8.714396,3.808695 -0.607161,3.430494 -1.108628,6.847437 -1.667125,10.279672 -0.685641,2.482497 -3.575015,1.509424 -5.465938,1.704309 -7.966472,0 -15.932944,0 -23.899416,0 -2.524727,-3.33561 -2.238577,-7.89559 -2.702262,-11.885151 -1.263685,-5.013863 4.780807,-3.685961 7.86506,-4.139808 l 0.483054,-0.03146 0.483055,-0.03146 z"
     id="path841"
     inkscape:connector-curvature="0" />
</svg>
